<svg width="360" height="132" viewBox="0 0 360 132" fill="none" xmlns="http://www.w3.org/2000/svg">
  <defs>
    <linearGradient id="bg" x1="28" y1="18" x2="332" y2="114" gradientUnits="userSpaceOnUse">
      <stop stop-color="#FFF8FF" stop-opacity="0.92"/>
      <stop offset="1" stop-color="#F2E5FB" stop-opacity="0.98"/>
    </linearGradient>
    <linearGradient id="accent" x1="66" y1="18" x2="292" y2="118" gradientUnits="userSpaceOnUse">
      <stop stop-color="#CB11AB"/>
      <stop offset="1" stop-color="#6E0BD4"/>
    </linearGradient>
    <linearGradient id="card1" x1="20" y1="24" x2="126" y2="90" gradientUnits="userSpaceOnUse">
      <stop stop-color="#FFFFFF"/>
      <stop offset="1" stop-color="#F6ECFB"/>
    </linearGradient>
    <linearGradient id="card2" x1="132" y1="18" x2="248" y2="98" gradientUnits="userSpaceOnUse">
      <stop stop-color="#FFF7FD"/>
      <stop offset="1" stop-color="#F3E6FA"/>
    </linearGradient>
    <linearGradient id="card3" x1="240" y1="28" x2="336" y2="102" gradientUnits="userSpaceOnUse">
      <stop stop-color="#FEFAFF"/>
      <stop offset="1" stop-color="#F3E9FD"/>
    </linearGradient>
    <filter id="shadow" x="4" y="6" width="352" height="120" filterUnits="userSpaceOnUse" color-interpolation-filters="sRGB">
      <feFlood flood-opacity="0" result="BackgroundImageFix"/>
      <feColorMatrix in="SourceAlpha" type="matrix" values="0 0 0 0 0 0 0 0 0 0 0 0 0 0 0 0 0 0 127 0" result="hardAlpha"/>
      <feOffset dy="8"/>
      <feGaussianBlur stdDeviation="10"/>
      <feColorMatrix type="matrix" values="0 0 0 0 0.431373 0 0 0 0 0.0431373 0 0 0 0 0.831373 0 0 0 0.12 0"/>
      <feBlend mode="normal" in2="BackgroundImageFix" result="effect1_dropShadow_1_2"/>
      <feBlend mode="normal" in="SourceGraphic" in2="effect1_dropShadow_1_2" result="shape"/>
    </filter>
  </defs>

  <rect width="360" height="132" rx="24" fill="url(#bg)"/>
  <path d="M31 18C84 2 150 5 205 24C258 42 309 39 342 14V64C315 86 267 91 213 75C157 58 87 57 31 76V18Z" fill="url(#accent)" fill-opacity="0.08"/>
  <path d="M30 96C84 74 148 77 206 98C256 116 306 116 336 101" stroke="#DDB7ED" stroke-width="2" stroke-linecap="round" stroke-dasharray="4 8" opacity="0.8"/>

  <g filter="url(#shadow)">
    <rect x="20" y="24" width="104" height="68" rx="18" fill="url(#card1)"/>
    <rect x="20.75" y="24.75" width="102.5" height="66.5" rx="17.25" stroke="#E9D6F5" stroke-width="1.5"/>
    <rect x="36" y="38" width="30" height="10" rx="5" fill="#F2D3F4"/>
    <rect x="71" y="38" width="22" height="10" rx="5" fill="#E7E2F9"/>
    <path d="M36 72H57L65 58L77 66L90 46L106 52" stroke="url(#accent)" stroke-width="4" stroke-linecap="round" stroke-linejoin="round"/>
    <circle cx="90" cy="46" r="5.5" fill="#FFFFFF" stroke="#CB11AB" stroke-width="3"/>

    <rect x="132" y="18" width="116" height="78" rx="20" fill="url(#card2)"/>
    <rect x="132.75" y="18.75" width="114.5" height="76.5" rx="19.25" stroke="#E7D5F5" stroke-width="1.5"/>
    <rect x="148" y="34" width="84" height="10" rx="5" fill="#F1D6F6"/>
    <rect x="148" y="52" width="56" height="10" rx="5" fill="#E4E8FA"/>
    <rect x="148" y="70" width="42" height="10" rx="5" fill="#FBE0F7"/>
    <rect x="213" y="56" width="18" height="24" rx="9" fill="url(#accent)" opacity="0.9"/>
    <path d="M219 67L223 71L228 63" stroke="#FFFFFF" stroke-width="3" stroke-linecap="round" stroke-linejoin="round"/>

    <rect x="254" y="30" width="86" height="62" rx="18" fill="url(#card3)"/>
    <rect x="254.75" y="30.75" width="84.5" height="60.5" rx="17.25" stroke="#E7D5F5" stroke-width="1.5"/>
    <path d="M272 72C282 56 290 48 301 48C312 48 319 59 328 59" stroke="#C844E0" stroke-width="4" stroke-linecap="round"/>
    <rect x="272" y="42" width="18" height="18" rx="9" fill="#FFFFFF" stroke="#E3C8F2" stroke-width="1.5"/>
    <rect x="312" y="66" width="16" height="16" rx="8" fill="#FFFFFF" stroke="#E3C8F2" stroke-width="1.5"/>
  </g>

  <g opacity="0.75">
    <rect x="286" y="18" width="48" height="14" rx="7" fill="#FFFFFF" fill-opacity="0.86"/>
    <rect x="294" y="23" width="20" height="4" rx="2" fill="#D8BAED"/>
    <rect x="317" y="23" width="9" height="4" rx="2" fill="#CB11AB"/>
  </g>
</svg>
